        <svg width="102" height="102" viewBox="0 0 102 102" fill="none" xmlns="http://www.w3.org/2000/svg">
            <path fill-rule="evenodd" clip-rule="evenodd"
                d="M89.25 51C89.25 56.0231 88.2606 60.9969 86.3384 65.6376C84.4162 70.2783 81.5987 74.495 78.0468 78.0468C74.495 81.5987 70.2783 84.4162 65.6376 86.3384C60.9969 88.2606 56.0231 89.25 51 89.25C45.9769 89.25 41.0031 88.2606 36.3624 86.3384C31.7217 84.4162 27.505 81.5987 23.9532 78.0468C20.4013 74.495 17.5838 70.2783 15.6616 65.6376C13.7394 60.9969 12.75 56.0231 12.75 51C12.75 40.8555 16.7799 31.1264 23.9532 23.9532C31.1264 16.7799 40.8555 12.75 51 12.75C61.1445 12.75 70.8736 16.7799 78.0468 23.9532C85.2201 31.1264 89.25 40.8555 89.25 51ZM21.25 51C21.25 58.8902 24.3844 66.4572 29.9636 72.0364C35.5428 77.6156 43.1098 80.75 51 80.75V51H80.75C80.75 43.1098 77.6156 35.5428 72.0364 29.9636C66.4572 24.3844 58.8902 21.25 51 21.25V51H21.25Z"
                fill="#353531" fill-opacity="0.61" />
        </svg>