<svg width="95" height="95" viewBox="0 0 95 95" fill="none" xmlns="http://www.w3.org/2000/svg">
<path d="M47.5 19.7244C59.3908 19.7244 72.1367 22.1469 82.2779 28.5871C88.8685 32.7988 95 39.1875 95 47.5079C95 57.2296 86.6994 64.2992 78.7471 68.4356C69.2827 73.3361 58.1004 75.2756 47.5 75.2756C35.6131 75.2756 22.891 72.8808 12.7458 66.4169C6.15917 62.2013 0 55.8165 0 47.5119C0 37.7467 8.28083 30.7048 16.2529 26.5604C25.745 21.6679 36.9035 19.7244 47.5 19.7244ZM47.401 22.6773C36.3454 22.6773 24.4348 24.7475 14.8437 30.5267C8.81125 34.1367 2.85 39.8169 2.85 47.3615C2.85 56.2242 10.925 62.4269 18.145 65.9894C27.0829 70.3515 37.529 72.0456 47.401 72.0456C58.4765 72.0456 70.395 69.9754 79.986 64.1963C85.9908 60.5625 91.9758 54.91 91.9758 47.3615C91.9758 38.4829 83.9206 32.2683 76.6808 28.7375C67.7429 24.3675 57.2929 22.6813 47.401 22.6813V22.6773ZM5.68021 41.2261L23.8767 38.1227L29.355 26.2358L34.8096 38.1188L53.0021 41.2221L34.8096 44.3571L29.355 56.2717L23.8767 44.3571L5.68021 41.2261ZM45.6831 50.2867L53.7106 48.8775L56.1054 43.4981L58.5042 48.8775L66.5317 50.2867L58.5042 51.6721L56.1054 57.0554L53.7106 51.6721L45.6831 50.2867ZM62.2923 35.9536L70.3198 34.5681L72.7146 29.165L75.1133 34.5642L83.1408 35.9496L75.1133 37.3627L72.7146 42.7461L70.3158 37.3627L62.2923 35.9536ZM53.7146 61.3938L61.7104 60.0083L64.1131 54.6052L66.5356 60.0083L74.5592 61.3938L66.5356 62.8069L64.1131 68.1902L61.7144 62.8069L53.7146 61.3938ZM29.0542 63.3373L37.0817 61.9519L39.5042 56.5448L41.899 61.9519L49.9265 63.3373L41.899 64.7504L39.5042 70.1298L37.0817 64.7504L29.0542 63.3373ZM69.4133 50.065L77.4171 48.6519L79.8119 43.2725L82.2344 48.6519L90.2619 50.065L82.2344 51.4504L79.8119 56.8219L77.4131 51.4504L69.4133 50.065Z" fill="#353531" fill-opacity="0.61"/>
</svg>
