<svg width="82" height="82" viewBox="0 0 82 82" fill="none" xmlns="http://www.w3.org/2000/svg">
<path d="M70.3013 51.0962L70.2672 51.1919C66.0066 63.6388 54.2601 71.9857 41.0171 71.9857C27.7741 71.9857 16.0071 63.6217 11.7636 51.1782L11.7294 51.0791H2.42583V52.2032L6.29692 52.6576C8.68858 52.931 9.19083 53.9901 9.84342 55.3226L10.0074 55.6506C15.6039 67.5919 27.7878 75.3033 41.0308 75.3033C54.2772 75.3033 66.461 67.5919 72.0575 55.6677L72.2215 55.3431C72.8707 54.0106 73.3763 52.9515 75.768 52.6747L79.6425 52.2169V51.0962H70.3013ZM11.7636 30.791C16.0242 18.3441 27.7741 9.98347 41.0171 9.98347C54.2601 9.98347 66.0237 18.3441 70.2706 30.791L70.3048 30.8866H79.6254V29.766L75.7509 29.3116C73.3593 29.0348 72.857 27.9791 72.2044 26.6431L72.0438 26.3151C66.4473 14.4081 54.2567 6.69664 41.0171 6.69664C27.757 6.69664 15.5868 14.4081 9.99033 26.3493L9.82633 26.6739C9.17717 28.0064 8.6715 29.0656 6.27983 29.3423L2.40875 29.7967V30.9208H11.7157L11.7636 30.791ZM59.1254 36.2098L53.1702 45.7594H55.7395L56.7987 44.0511H63.7448L64.8039 45.7594H67.3562L61.4009 36.2098H59.1254ZM62.6548 42.2436H57.8886L60.2803 38.4033L62.6548 42.2436ZM72.2557 38.6015L79.3316 45.7594H82V36.2098H79.9022V43.3336L72.857 36.2098H70.1407V45.7594H72.2557V38.6015ZM0 45.7594H2.11492V38.6015L9.20792 45.7594H11.8763V36.2098H9.76142V43.3336L2.71625 36.2098H0V45.7594ZM16.5469 36.2098H18.6618V45.7594H16.5435L16.5469 36.2098ZM31.8741 43.7401C31.8058 43.7572 31.5461 43.7572 31.4504 43.7572H23.0386V45.7116H31.5803C31.6452 45.7116 32.1508 45.7116 32.2465 45.6945C33.989 45.5305 34.7851 44.0818 34.7851 42.8142C34.7851 41.5125 33.9548 40.1151 32.3763 39.9681C32.0688 39.934 31.8092 39.934 31.693 39.934H26.1136C25.9063 39.9407 25.6989 39.9246 25.4952 39.8861C25.0544 39.77 24.8938 39.3805 24.8938 39.0559C24.8938 38.7621 25.0544 38.3726 25.5088 38.2427C25.7019 38.2019 25.8994 38.1858 26.0965 38.1949H34.1496V36.2747H25.9667C25.625 36.2747 25.3653 36.2884 25.1535 36.3226C24.487 36.4046 23.8748 36.7316 23.4359 37.2399C22.997 37.7482 22.7629 38.4016 22.7789 39.073C22.7789 40.2449 23.5101 41.6116 25.1193 41.8405C25.4132 41.8712 25.8198 41.8712 26.0008 41.8712H31.4333C31.5324 41.8712 31.775 41.8712 31.8228 41.8883C32.4413 41.9669 32.6531 42.4247 32.6531 42.8313C32.6583 43.0522 32.5816 43.2673 32.4378 43.4351C32.294 43.6029 32.0932 43.7115 31.8741 43.7401V43.7401ZM47.7855 43.7401C47.7172 43.7572 47.4575 43.7572 47.3448 43.7572H38.95V45.7116H47.4917C47.5566 45.7116 48.0623 45.7116 48.1579 45.6945C49.9004 45.5305 50.6965 44.0818 50.6965 42.8142C50.6965 41.5125 49.8663 40.1151 48.2878 39.9681C47.9803 39.934 47.7206 39.934 47.6044 39.934H42.025C41.8177 39.9407 41.6104 39.9246 41.4066 39.8861C40.9658 39.77 40.8053 39.3805 40.8053 39.0559C40.8053 38.7621 40.9658 38.3726 41.4203 38.2427C41.6133 38.2019 41.8108 38.1858 42.0079 38.1949H50.061V36.2747H41.8781C41.5364 36.2747 41.2768 36.2884 41.0649 36.3226C40.3984 36.4046 39.7862 36.7316 39.3473 37.2399C38.9084 37.7482 38.6743 38.4016 38.6903 39.073C38.6903 40.2449 39.4215 41.6116 41.0342 41.8405C41.3246 41.8712 41.7312 41.8712 41.9123 41.8712H47.3448C47.4438 41.8712 47.6864 41.8712 47.7343 41.8883C48.3527 41.9669 48.5645 42.4247 48.5645 42.8313C48.566 43.0513 48.488 43.2644 48.3449 43.4314C48.2018 43.5984 48.0031 43.708 47.7855 43.7401V43.7401Z" fill="#353531" fill-opacity="0.61"/>
</svg>
