<svg width="80" height="80" viewBox="0 0 80 80" fill="none" xmlns="http://www.w3.org/2000/svg">
<g clip-path="url(#clip0)">
<path d="M40 17.8775L48.255 7.7875C48.255 7.7875 62.395 8.0875 76.485 14.6375C72.8775 20.0925 65.7175 22.7625 65.7175 22.7625C65.235 17.97 61.8775 16.8 51.2 16.8L40.0025 80.0025L28.7275 16.7875C18.1275 16.7875 14.77 17.96 14.2875 22.75C14.2875 22.75 7.125 20.1075 3.52 14.65C17.6075 8.1 31.75 7.8 31.75 7.8L40.005 17.8775H39.9925H40ZM40 4.8825C51.38 4.7775 64.415 6.64 77.76 12.4725C79.545 9.2425 80 7.825 80 7.825C65.4175 2.0425 51.7575 0.0525 40 0C28.2425 0.0525 14.5825 2.0325 0 7.825C0 7.825 0.65 9.5825 2.24 12.4875C15.5875 6.6275 28.62 4.78 40 4.87V4.8825Z" fill="#353531" fill-opacity="0.61"/>
</g>
<defs>
<clipPath id="clip0">
<rect width="80" height="80" fill="white"/>
</clipPath>
</defs>
</svg>
