<svg width="99" height="99" viewBox="0 0 99 99" fill="none" xmlns="http://www.w3.org/2000/svg">
<g clip-path="url(#clip0)">
<path d="M17.0363 29.7412H25.0759V50.8365C25.0759 54.4665 23.5166 62.0771 12.3626 62.0771C1.20862 62.0812 0 54.9903 0 51.0138V47.1199H7.77975V50.9272C7.77975 53.2578 9.339 55.4235 12.276 55.4235C15.2171 55.4235 17.0321 53.7776 17.0321 51.0097V29.7412H17.0363ZM34.4108 47.6437C34.4108 45.3049 35.3595 43.4032 38.0408 43.4032C40.8086 43.4032 42.0172 45.4781 42.0172 47.6396H34.4108V47.6437ZM37.5251 38.5605C30.1744 38.5605 26.8868 45.3048 26.8868 51.1005C26.8868 56.892 30.6075 62.5102 38.214 62.5102C44.8717 62.5969 49.2814 58.2739 49.2814 55.077H41.9306C41.9306 55.077 41.0644 57.1477 38.4739 57.1477C35.8792 57.1477 34.4108 55.6792 34.4108 52.1359H49.368C49.368 40.9819 43.8364 38.5646 37.5251 38.5646V38.5605ZM58.4471 47.6396C58.4471 45.3049 59.3959 43.4032 62.0771 43.4032C64.845 43.4032 66.0536 45.4781 66.0536 47.6396H58.4513H58.4471ZM61.5574 38.5646C54.2108 38.5646 50.9231 45.3049 50.9231 51.0964C50.9231 56.892 54.6439 62.5102 62.2504 62.5102C68.9081 62.5969 73.3178 58.2739 73.3178 55.077H65.967C65.967 55.077 65.1008 57.1477 62.5103 57.1477C59.9198 57.1477 58.443 55.6792 58.443 52.1359H73.4003C73.4003 40.9819 67.8727 38.5646 61.5615 38.5646H61.5574ZM82.6403 50.8365C82.731 46.431 84.4594 44.616 86.7941 44.616C90.5974 44.616 91.2904 47.553 91.2904 50.5807C91.2904 53.6044 90.7706 57.5808 87.1406 57.5808C83.5106 57.5808 82.5619 55.2502 82.6444 50.8365H82.6403ZM82.8176 69.2546V60.0022C83.127 60.4147 83.3044 60.6127 83.853 61.0417C84.7192 61.7141 86.1877 62.8567 89.4754 62.8567C95.4401 62.8567 98.8969 57.6716 98.8969 50.5807C98.8969 41.415 93.1054 38.8245 89.3888 38.8245C85.6721 38.8245 84.2738 40.5487 83.7705 41.1551C83.1889 41.8564 82.9991 42.2524 82.731 42.8257V39.4267H75.2936V69.2546H82.8176ZM95.8774 65.7979V68.2398H96.3064V67.2746H96.6446C96.8756 67.2746 97.0365 67.3035 97.1272 67.3571C97.2799 67.4479 97.3541 67.6335 97.3541 67.914V68.1078L97.3624 68.1904L97.3706 68.2151L97.3748 68.2398H97.779L97.7625 68.211C97.7475 68.1085 97.7392 68.0052 97.7378 67.9016V67.7201C97.7378 67.5964 97.6924 67.4726 97.6058 67.3406C97.5555 67.2737 97.4917 67.2182 97.4184 67.1776C97.3452 67.1371 97.2643 67.1125 97.1809 67.1055C97.3058 67.0891 97.4263 67.0485 97.5356 66.9859C97.6965 66.8827 97.7749 66.7218 97.7749 66.5032C97.7749 66.198 97.6511 65.9917 97.3995 65.8845C97.1835 65.817 96.9572 65.7891 96.7313 65.802H95.8774V65.7979ZM97.1933 66.1815C97.3005 66.2434 97.3582 66.363 97.3582 66.5404C97.3582 66.7301 97.2716 66.8538 97.1025 66.9198C96.9709 66.9634 96.8326 66.983 96.6941 66.9776H96.3064V66.0907H96.6776C96.9128 66.0907 97.086 66.1237 97.1933 66.1815V66.1815ZM98.3482 68.6029C98.5588 68.3978 98.7252 68.1519 98.8372 67.8802C98.9493 67.6085 99.0047 67.3168 99 67.023C99.0042 66.731 98.9486 66.4413 98.8365 66.1717C98.7244 65.9021 98.5582 65.6584 98.3482 65.4555C98.1435 65.246 97.8981 65.0805 97.6271 64.9692C97.3562 64.8578 97.0654 64.8029 96.7725 64.8079C96.4809 64.8031 96.1913 64.8581 95.9217 64.9695C95.6522 65.0809 95.4082 65.2463 95.205 65.4555C94.9958 65.6587 94.8304 65.9026 94.719 66.1722C94.6076 66.4418 94.5526 66.7313 94.5574 67.023C94.5574 67.6417 94.7719 68.1697 95.2009 68.6029C95.4037 68.8143 95.648 68.9816 95.9184 69.0945C96.1888 69.2073 96.4795 69.2632 96.7725 69.2587C97.0664 69.2625 97.3579 69.2059 97.6289 69.0924C97.9 68.9788 98.1448 68.8108 98.3482 68.5987V68.6029ZM95.4195 65.67C95.7949 65.2987 96.2445 65.109 96.7725 65.109C97.3005 65.109 97.7543 65.2946 98.1255 65.67C98.4968 66.0412 98.6824 66.495 98.6824 67.023C98.6824 67.5592 98.4967 68.013 98.1296 68.3842C97.9547 68.5671 97.7438 68.7117 97.5103 68.8089C97.2767 68.9062 97.0255 68.954 96.7725 68.9494C96.5205 68.9542 96.2702 68.9069 96.0373 68.8103C95.8045 68.7138 95.5941 68.5701 95.4195 68.3884C95.2404 68.2104 95.0991 67.9981 95.0041 67.7642C94.9091 67.5303 94.8624 67.2795 94.8667 67.0271C94.8625 66.7749 94.9097 66.5245 95.0054 66.2912C95.1012 66.0579 95.2435 65.8465 95.4236 65.67" fill="#353531" fill-opacity="0.61"/>
</g>
<defs>
<clipPath id="clip0">
<rect width="99" height="99" fill="white"/>
</clipPath>
</defs>
</svg>
