<svg width="102" height="102" viewBox="0 0 102 102" fill="none" xmlns="http://www.w3.org/2000/svg">
            <g clip-path="url(#clip0)">
                <path
                    d="M84.354 33.354C80.138 33.354 76.2705 34.833 73.236 37.298C70.0953 34.7413 66.1678 33.348 62.118 33.354C57.902 33.354 54.0345 34.833 51 37.298C47.8593 34.7413 43.9318 33.348 39.882 33.354C35.666 33.354 31.7985 34.833 28.764 37.298C26.1749 35.1969 23.0435 33.8724 19.7325 33.4779C16.4215 33.0834 13.0666 33.6351 10.0563 35.069C7.04597 36.503 4.50354 38.7605 2.72354 41.58C0.943536 44.3995 -0.00119019 47.6656 -0.00119019 51C-0.00119019 54.3344 0.943536 57.6005 2.72354 60.42C4.50354 63.2395 7.04597 65.497 10.0563 66.931C13.0666 68.3649 16.4215 68.9165 19.7325 68.5221C23.0435 68.1276 26.1749 66.8031 28.764 64.702C31.7985 67.167 35.666 68.646 39.882 68.646C44.098 68.646 47.9655 67.167 51 64.702C54.0345 67.167 57.902 68.646 62.118 68.646C66.334 68.646 70.2015 67.167 73.236 64.702C75.4293 66.4818 78.0178 67.7092 80.7839 68.2808C83.5501 68.8525 86.413 68.7518 89.1321 67.9871C91.8513 67.2225 94.3471 65.8163 96.4099 63.8867C98.4726 61.9571 100.042 59.5605 100.986 56.8984C101.93 54.2363 102.222 51.3864 101.836 48.5883C101.45 45.7902 100.397 43.1257 98.7678 40.8187C97.1381 38.5117 94.9783 36.6296 92.4702 35.3306C89.962 34.0317 87.1786 33.3538 84.354 33.354ZM73.236 58.9305C71.5799 56.618 70.691 53.8443 70.6945 51C70.6945 48.042 71.638 45.305 73.236 43.0695C74.834 45.305 75.7775 48.042 75.7775 51C75.7775 53.958 74.834 56.695 73.236 58.9305ZM51 58.9305C49.3439 56.618 48.455 53.8443 48.4585 51C48.4585 48.042 49.402 45.305 51 43.0695C52.598 45.305 53.5415 48.042 53.5415 51C53.5415 53.958 52.598 56.695 51 58.9305ZM28.764 58.9305C27.1079 56.618 26.219 53.8443 26.2225 51C26.2225 48.042 27.166 45.305 28.764 43.0695C30.362 45.305 31.3055 48.042 31.3055 51C31.3055 53.958 30.362 56.695 28.764 58.9305ZM3.98651 51C3.98751 48.4512 4.70161 45.9535 6.04806 43.7894C7.39452 41.6253 9.3196 39.8811 11.6056 38.754C13.8917 37.6269 16.4474 37.1619 18.984 37.4116C21.5205 37.6612 23.9366 38.6156 25.959 40.1667C23.5426 43.2605 22.2319 47.0744 22.236 51C22.236 55.0842 23.63 58.8455 25.959 61.8332C23.9366 63.3844 21.5205 64.3388 18.984 64.5884C16.4474 64.8381 13.8917 64.3731 11.6056 63.246C9.3196 62.1189 7.39452 60.3747 6.04806 58.2105C4.70161 56.0464 3.98751 53.5488 3.98651 51ZM31.569 61.8332C33.9854 58.7395 35.2961 54.9256 35.292 51C35.292 46.9157 33.898 43.1545 31.569 40.1667C33.9518 38.3323 36.8749 37.3385 39.882 37.3405C43.01 37.3405 45.8915 38.3945 48.195 40.1667C45.7774 43.2599 44.4666 47.0742 44.472 51C44.472 55.0842 45.866 58.8455 48.195 61.8332C45.8122 63.6677 42.8891 64.6615 39.882 64.6595C36.8745 64.6637 33.9507 63.6697 31.569 61.8332ZM53.805 61.8332C56.2226 58.7401 57.5334 54.9258 57.528 51C57.528 46.9157 56.134 43.1545 53.805 40.1625C56.1085 38.3945 58.99 37.3362 62.118 37.3362C65.246 37.3362 68.1275 38.3902 70.431 40.1625C68.0134 43.2556 66.7026 47.0699 66.708 50.9957C66.708 55.08 68.102 58.8412 70.431 61.829C68.0482 63.6634 65.1251 64.6572 62.118 64.6552C59.1107 64.6626 56.1863 63.6699 53.805 61.8332ZM84.354 64.6595C81.3465 64.6637 78.4227 63.6697 76.041 61.8332C78.4568 58.7392 79.7675 54.9255 79.764 51C79.764 46.9157 78.37 43.1545 76.041 40.1667C77.763 38.8442 79.7755 37.9513 81.9116 37.5619C84.0476 37.1726 86.2458 37.298 88.3236 37.9279C90.4015 38.5578 92.2993 39.6739 93.8597 41.1838C95.42 42.6937 96.598 44.5538 97.2958 46.6098C97.9936 48.6659 98.1913 50.8587 97.8724 53.0064C97.5534 55.1541 96.7271 57.1949 95.4619 58.9594C94.1967 60.724 92.5291 62.1615 90.5973 63.1528C88.6655 64.1441 86.5253 64.6606 84.354 64.6595Z"
                    fill="#353531" fill-opacity="0.61" />
            </g>
            <defs>
                <clipPath id="clip0">
                    <rect width="102" height="102" fill="white" />
                </clipPath>
            </defs>
        </svg>