        <svg width="93" height="93" viewBox="0 0 93 93" fill="none" xmlns="http://www.w3.org/2000/svg">
            <path
                d="M46.4961 49.8945C46.3566 49.8945 46.0893 49.7163 45.6359 48.887C43.7384 45.3542 41.1332 42.2503 37.9827 39.7691C35.5104 37.8301 32.7658 36.2659 29.8375 35.1269C29.3937 34.9466 28.9481 34.7709 28.5006 34.5999C24.5791 33.0499 20.5142 31.4495 16.74 29.264C16.3216 29.0272 15.9082 28.7817 15.5 28.5278C16.2518 27.2103 17.1275 25.9509 18.0963 24.8C19.5021 23.1196 21.1365 21.6444 22.9516 20.4174C24.9005 19.1144 27.0074 18.0648 29.2214 17.2941C33.9411 15.6124 39.5947 14.787 46.4961 14.7793C53.4052 14.787 59.055 15.6124 63.7747 17.298C65.9904 18.0661 68.0987 19.1144 70.0484 20.4174C71.8625 21.6442 73.4967 23.118 74.9037 24.7961C75.8725 25.9509 76.7444 27.2103 77.5 28.5278C77.1009 28.7758 76.6785 29.0276 76.26 29.2718C72.478 31.4573 68.4209 33.0576 64.4916 34.6038L63.1548 35.1308C60.2292 36.2707 57.4874 37.8348 55.0173 39.773C51.8655 42.2543 49.26 45.3598 47.3641 48.8948C46.9107 49.7201 46.6395 49.8984 46.4961 49.8984V49.8945ZM46.4961 77.3024C40.5131 77.2946 35.6539 76.8025 31.6549 75.8028C27.7295 74.8263 24.4667 73.3228 21.6729 71.1993C19.5312 69.5546 17.704 67.537 16.2789 65.2434C14.9438 63.1034 13.889 60.8009 13.1401 58.3924C11.9723 54.6492 11.3625 50.7543 11.3305 46.8333C11.3305 44.2215 11.5126 41.7454 11.8536 39.4669C16.1394 41.7764 20.1965 42.935 23.7886 43.9619L24.6217 44.1944C29.6205 45.632 33.5885 47.5153 36.7699 49.9604C38.6105 51.3864 40.2186 53.0333 41.5361 54.8584C42.966 56.8269 44.1052 59.0744 44.9345 61.5428C45.3065 62.6626 45.7095 63.3563 46.4961 63.3563C47.2982 63.3563 47.6896 62.6588 48.0655 61.5428C49.5446 56.9419 52.3931 52.9024 56.2301 49.9643C59.4076 47.5153 63.3795 45.632 68.3783 44.1944L69.2152 43.9619C72.8035 42.935 76.8606 41.7764 81.1425 39.4669C81.4912 41.7493 81.6695 44.2215 81.6695 46.8294C81.6695 48.6041 81.4912 53.2774 79.8676 58.3924C79.1193 60.8004 78.0657 63.1028 76.7327 65.2434C75.3033 67.5385 73.4706 69.5562 71.3232 71.1993C68.5216 73.3228 65.2589 74.8263 61.349 75.8028C57.3384 76.8025 52.483 77.2946 46.4961 77.3024ZM84.0526 20.8979C76.6553 12.9541 64.7164 9.31163 46.4961 9.29225C28.2836 9.31163 16.3447 12.9503 8.94738 20.894C3.44875 26.7879 0 34.9448 0 46.0118C0 52.1304 1.51125 67.7118 13.8105 75.7562C21.173 80.569 30.6822 83.6845 46.4961 83.7077C62.3177 83.6845 71.8231 80.569 79.1895 75.7562C91.4849 67.7118 93 52.1265 93 46.0118C93 34.9758 89.5241 26.7608 84.0488 20.8901L84.0526 20.8979Z"
                fill="#353531" fill-opacity="0.61" />
        </svg>