<svg width="130" height="130" viewBox="0 0 130 130" fill="none" xmlns="http://www.w3.org/2000/svg">
            <path
                d="M129.485 52.9967H86.2333V44.6658C86.2341 44.5537 86.2126 44.4425 86.1702 44.3387C86.1278 44.2349 86.0652 44.1405 85.9862 44.061C85.9071 43.9814 85.8131 43.9183 85.7096 43.8752C85.6061 43.8322 85.4951 43.81 85.3829 43.81H44.6225C44.5104 43.81 44.3993 43.8322 44.2958 43.8752C44.1923 43.9183 44.0983 43.9814 44.0192 44.061C43.9402 44.1405 43.8777 44.2349 43.8353 44.3387C43.7928 44.4425 43.7714 44.5537 43.7721 44.6658V52.9967H12.7725C12.3013 52.9967 11.7271 53.3758 11.4888 53.8525L0.108334 76.1475C-0.135416 76.6242 0.048751 76.9979 0.525418 76.9979H43.7667V85.3396C43.7667 85.8054 44.1458 86.19 44.6171 86.19H85.3775C85.8488 86.19 86.2279 85.8108 86.2279 85.3396V76.9979H117.228C117.699 76.9979 118.273 76.6187 118.517 76.1475L129.892 53.8525C130.135 53.3812 129.951 52.9967 129.48 52.9967H129.485ZM115.971 58.3917L109.233 71.5921H80.8925V80.8437H49.1292V71.5921H14.0563L20.8 58.3917H49.14V49.1454H80.9033V58.3917H115.971Z"
                fill="#353531" fill-opacity="0.61" />
        </svg>