 <svg width="77" height="77" viewBox="0 0 77 77" fill="none" xmlns="http://www.w3.org/2000/svg">
            <path
                d="M38.5 0C59.7488 0 77 17.2512 77 38.5C77 59.7488 59.7488 77 38.5 77C17.2512 77 0 59.7488 0 38.5C0 17.2512 17.2512 0 38.5 0ZM10.411 56.271C13.4079 61.0095 17.555 64.9126 22.4663 67.6171C27.3776 70.3215 32.8933 71.7393 38.5 71.7383C50.3099 71.7383 60.692 65.5655 66.589 56.271L38.5 45.568L10.411 56.271ZM44.6215 34.9644L67.9365 53.9417C70.4411 49.1804 71.7461 43.8799 71.7383 38.5C71.7383 20.6071 57.5671 5.99638 39.8475 5.28733L44.6215 34.9644ZM37.1525 5.28733C19.4329 5.99638 5.26167 20.6071 5.26167 38.5C5.26167 44.0729 6.63483 49.3249 9.06354 53.9417L32.3785 34.9644L37.1525 5.28733Z"
                fill="#353531" fill-opacity="0.61" />
        </svg>