<svg width="77" height="77" viewBox="0 0 77 77" fill="none" xmlns="http://www.w3.org/2000/svg">
            <g clip-path="url(#clip0)">
                <path
                    d="M38.3686 0.000160523C17.107 0.0739522 -0.0736311 17.3733 0.000160523 38.6349C0.0739522 59.8965 17.3733 77.0707 38.6317 77.0002C59.8933 76.9264 77.074 59.6302 77.0002 38.3686C76.9264 17.107 59.6302 -0.0736311 38.3686 0.000160523ZM38.5002 6.84674C42.6585 6.83558 46.7778 7.64933 50.6196 9.24089C54.4614 10.8324 57.9493 13.1702 60.8815 16.1188C63.8303 19.0509 66.1681 22.5388 67.7597 26.3806C69.3512 30.2224 70.1649 34.3418 70.1536 38.5002C70.1649 42.6586 69.3512 46.7779 67.7597 50.6197C66.1681 54.4615 63.8303 57.9494 60.8815 60.8815C57.9493 63.8301 54.4614 66.1679 50.6196 67.7594C46.7778 69.351 42.6585 70.1647 38.5002 70.1536C34.3418 70.1646 30.2226 69.3507 26.3808 67.7592C22.5391 66.1676 19.0511 63.83 16.1188 60.8815C13.1701 57.9494 10.8322 54.4615 9.24064 50.6197C7.64907 46.7779 6.8354 42.6586 6.84674 38.5002C6.8354 34.3418 7.64907 30.2224 9.24064 26.3806C10.8322 22.5388 13.1701 19.0509 16.1188 16.1188C19.0511 13.1703 22.5391 10.8327 26.3808 9.24113C30.2226 7.64959 34.3418 6.83576 38.5002 6.84674ZM38.8659 10.6775C36.1244 10.6753 33.3973 11.0741 30.7713 11.8614C30.5567 11.9174 30.3586 12.0241 30.1938 12.1726C30.0695 12.2909 29.993 12.4507 29.9788 12.6217C29.9564 12.9458 30.1521 13.2538 30.4376 13.4976C32.9305 15.6312 36.2768 18.8267 38.6413 22.789C37.3163 22.8146 36.2704 22.0831 35.3688 21.2169C32.6047 18.6192 29.529 16.3744 26.2122 14.5339C25.7342 14.2676 25.2177 14.1425 24.714 14.4312C21.8008 16.1252 19.8277 17.7262 17.5177 20.4052C17.2995 20.6586 17.245 20.9217 17.3252 21.1431C17.4201 21.3567 17.5902 21.528 17.8032 21.6243C20.2736 22.9397 24.1365 25.423 27.7041 28.6377C27.3531 28.8591 26.9312 28.9393 26.5235 28.8623C25.9524 28.7789 25.2497 28.5126 24.4092 28.0731C21.6139 26.6304 18.6607 25.5172 15.6087 24.7557C15.0537 24.6113 14.4345 24.7717 14.1329 25.2882C12.5961 27.9608 11.5341 31.1531 11.0368 34.3903C10.9889 34.7189 11.0725 35.0531 11.2695 35.3204C11.4666 35.5878 11.7611 35.7665 12.0892 35.818C14.8644 36.3057 18.7176 37.1976 22.0767 39.3889C25.4326 41.5737 28.2945 45.0452 29.1126 50.7239C29.1465 50.9314 29.1246 51.1442 29.049 51.3405C28.9735 51.5367 28.847 51.7093 28.6827 51.8404C28.365 52.0843 27.8998 52.1613 27.3352 51.8982L22.3237 49.5465C22.1292 49.4486 21.9158 49.3939 21.6981 49.386H13.8152C13.2121 49.386 12.7565 49.6812 12.5704 50.1047C12.3843 50.5282 12.4677 51.0672 12.8592 51.5164C14.7521 53.6916 16.4846 56.0401 17.9668 58.5298C18.0311 58.646 18.1262 58.7423 18.2417 58.808C18.3572 58.8736 18.4886 58.9061 18.6213 58.902H22.0639C22.3124 58.9041 22.5567 58.8375 22.7697 58.7095L26.0165 56.8101C26.1834 56.7075 26.347 56.7107 26.5844 56.7107H52.5206C52.665 56.7107 52.7901 56.7556 52.8767 56.8326C52.9217 56.8714 52.9575 56.9197 52.9813 56.9741C53.0052 57.0285 53.0166 57.0876 53.0147 57.147V58.4239C53.0147 58.9693 53.5087 59.3864 54.0445 59.303C57.2612 58.7886 60.2497 57.3212 62.6236 55.0905C62.7252 54.9956 62.8063 54.8809 62.8617 54.7534C62.9171 54.6259 62.9457 54.4883 62.9457 54.3493C62.9457 54.2103 62.9171 54.0728 62.8617 53.9453C62.8063 53.8178 62.7252 53.7031 62.6236 53.6082C60.2509 51.3775 57.2635 49.9101 54.0478 49.3957C53.9203 49.3758 53.79 49.3837 53.6658 49.4189C53.5417 49.454 53.4266 49.5156 53.3285 49.5994C53.2303 49.6832 53.1515 49.7872 53.0973 49.9044C53.0432 50.0215 53.015 50.1489 53.0147 50.278V51.4458C53.0106 51.5969 52.9589 51.7428 52.8671 51.8629C52.7773 51.9784 52.6617 52.049 52.5366 52.049C52.2832 52.049 52.0329 52.0554 51.7827 52.049C51.388 52.0425 51.1827 51.818 51.064 51.4939C50.9543 51.1587 50.9431 50.799 51.0319 50.4576C52.9441 43.5982 53.4125 39.4274 53.39 36.3891C53.3676 33.1711 53.2842 29.9403 51.8308 25.6829C50.4352 21.6019 49.1358 17.5658 42.3758 11.4411C41.9342 11.027 41.3602 10.7827 40.7556 10.7513C40.1268 10.7045 39.4965 10.6809 38.8659 10.6807V10.6775ZM43.7682 41.8112C44.7051 41.8505 45.5904 42.2504 46.2393 42.9272C46.8883 43.604 47.2506 44.5054 47.2506 45.443C47.2506 46.3806 46.8883 47.282 46.2393 47.9588C45.5904 48.6356 44.7051 49.0354 43.7682 49.0748C42.805 49.0748 41.8813 48.6922 41.2002 48.0111C40.5191 47.33 40.1364 46.4062 40.1364 45.443C40.1364 44.4798 40.5191 43.556 41.2002 42.8749C41.8813 42.1938 42.805 41.8112 43.7682 41.8112Z"
                    fill="#353531" fill-opacity="0.61" />
            </g>
            <defs>
                <clipPath id="clip0">
                    <rect width="77" height="77" fill="white" />
                </clipPath>
            </defs>
        </svg>