<svg width="111" height="111" viewBox="0 0 111 111" fill="none" xmlns="http://www.w3.org/2000/svg">
            <path
                d="M64.3939 65.5594C64.3939 65.7721 64.4632 65.8924 64.5835 65.8924C64.681 65.8792 64.7734 65.841 64.8518 65.7814L99.4468 43.3316C100.031 42.9223 100.732 42.7116 101.445 42.7304H109.048C110.214 42.7304 111 43.5074 111 44.6729V59.1908C111 60.9482 110.611 61.9657 109.058 62.8954L99.8353 68.4454C99.7435 68.509 99.6366 68.5473 99.5254 68.5564C99.4144 68.5564 99.3034 68.4685 99.3034 68.1494V51.208C99.3034 51.0091 99.2479 50.8796 99.1138 50.8796C99.0156 50.8905 98.9226 50.929 98.8455 50.9906L73.5653 67.414C72.9929 67.8035 72.315 68.0085 71.6227 68.0014H54.8618C53.687 68.0014 52.91 67.2244 52.91 66.0496V45.1261C52.91 44.9735 52.8406 44.8301 52.7065 44.8301C52.6103 44.843 52.5193 44.8813 52.4429 44.9411L35.7605 54.945C35.594 55.056 35.5477 55.1346 35.5477 55.2132C35.5477 55.278 35.5848 55.3474 35.6958 55.4676L47.6144 67.377C47.7716 67.5342 47.8826 67.6545 47.8826 67.7886C47.8826 67.8996 47.7023 67.9875 47.4941 67.9875H36.7225C35.8761 67.9875 35.224 67.8672 34.7661 67.4094L27.5419 60.1944C27.5145 60.1616 27.4807 60.1348 27.4425 60.1157C27.4043 60.0966 27.3625 60.0856 27.3199 60.0834C27.2413 60.0878 27.165 60.1116 27.0979 60.1527L15.0266 67.414C14.4494 67.8017 13.7653 67.999 13.0702 67.9782H1.96563C0.777 67.9875 0 67.2013 0 66.0404V51.7954C0 50.0379 0.3885 49.0204 1.95175 48.0954L11.2388 42.513C11.3108 42.4672 11.3939 42.4417 11.4793 42.439C11.6273 42.439 11.7013 42.5777 11.7013 42.9015V61.975C11.7013 62.1739 11.7475 62.2664 11.8909 62.2664C11.9906 62.2509 12.0855 62.2129 12.1684 62.1554L43.5074 43.29C44.115 42.881 44.8386 42.6798 45.5701 42.7165H62.4421C63.6076 42.7165 64.3939 43.4935 64.3939 44.659L64.3846 65.5547L64.3939 65.5594Z"
                fill="#353531" fill-opacity="0.61" />
        </svg>