<svg width="82" height="90" viewBox="0 0 82 90" fill="none" xmlns="http://www.w3.org/2000/svg">
            <g clip-path="url(#clip0)">
                <path
                    d="M81.6651 25.7625C80.5376 13.695 73.2259 11.1562 66.7889 9.99749C63.5567 9.39749 57.8031 8.87249 54.0926 8.72249C50.8604 8.49749 43.2686 8.38499 40.9896 8.38499C38.7449 8.38499 31.1155 8.49749 27.8867 8.72249C24.2104 8.87249 18.4226 9.39749 15.1904 9.99749C8.7568 11.1937 1.43488 13.725 0.314214 25.7625C0.040881 29.0512 -0.0274523 33.3487 0.00671434 37.9425C0.109214 45.5587 0.690048 50.715 1.03171 54.3037C1.27088 56.7675 2.18655 64.1287 3.37896 67.9387C5.01213 73.17 6.50863 74.7 8.2443 76.2712C11.4457 79.11 16.6869 80.0062 17.7768 80.2312C23.6979 81.3937 35.6801 81.6112 40.9555 81.6112C46.2308 81.6112 58.2096 81.4237 64.1341 80.2312C65.2582 80.0062 70.4994 79.1437 73.6666 76.2712C75.4023 74.7 76.8988 73.17 78.532 67.9387C79.7278 64.1287 80.6776 56.7675 80.9168 54.3037C81.2585 50.715 81.8701 45.5587 81.9384 37.9425C82.0751 33.3487 81.9726 29.0512 81.6651 25.7625ZM77.6471 46.0125C76.9979 55.65 76.2189 61.4025 75.0948 65.5875C74.104 69.2475 72.9184 71.6737 71.1144 73.4325C68.1521 76.3837 64.0658 77.0175 61.6844 77.3925C56.5116 78.255 47.8298 78.5175 40.9896 78.5175C34.1495 78.5175 25.4677 78.2175 20.2949 77.3925C17.9135 77.0175 13.8271 76.3837 10.8649 73.4325C9.09505 71.6737 7.87188 69.21 6.91863 65.5837C5.79455 61.44 5.01213 55.6462 4.36638 46.0087C3.99055 40.2225 4.05888 30.8062 4.63971 25.7587C5.52121 18.2175 8.92763 14.4412 16.212 13.0237C19.615 12.3487 24.207 11.8612 28.5325 11.6362C32.0038 11.3737 37.7575 11.2612 40.9555 11.2987C44.1535 11.2612 49.9071 11.4112 53.3785 11.6362C57.7347 11.8612 62.296 12.3487 65.699 13.0237C73.0175 14.4412 76.4239 18.255 77.2746 25.7625C77.9546 30.8062 78.0571 40.2225 77.6505 46.0125H77.6471ZM59.877 14.55C58.0046 23.7825 57.2564 28.005 55.7223 34.6875C54.26 41.1187 53.1017 47.055 51.1611 49.9312C49.1555 52.845 46.4973 53.4825 44.6933 53.7037C43.7401 53.8162 43.0601 53.8537 41.0511 53.8912C39.8244 53.9168 38.5975 53.8541 37.3782 53.7037C35.5742 53.4787 32.8853 52.845 30.9139 49.9312C28.9391 47.055 27.815 41.1187 26.3526 34.6912C24.7468 28.0425 24.0361 23.7787 22.1296 14.5537C22.1296 14.5537 20.2573 14.6287 19.4065 14.7037C18.2825 14.7787 17.3976 14.8912 16.4443 15.0412C17.6162 35.1862 18.8086 56.5875 20.2915 75.5287C23.0009 75.9028 25.7269 76.1143 28.4573 76.1625C29.5848 71.415 31.013 64.8375 32.5812 62.0362C33.8727 59.7562 35.8817 59.4975 37.0058 59.3475C38.7756 59.085 40.2721 59.0475 40.9862 59.0475C41.6696 59.01 43.1626 59.0475 44.9666 59.3475C46.0941 59.535 48.0997 59.76 49.3912 62.0362C50.9971 64.8375 52.3876 71.4112 53.5117 76.1587C53.5117 76.1587 54.7349 76.1212 57.4921 75.9712C58.893 75.9037 60.2938 75.7537 61.681 75.5212C63.2458 55.3087 64.3631 35.2912 65.5281 15.0412C64.5715 14.8912 63.69 14.7787 62.5659 14.7037C61.7801 14.6287 59.877 14.5537 59.877 14.5537V14.55Z"
                    fill="#353531" fill-opacity="0.61" />
            </g>
            <defs>
                <clipPath id="clip0">
                    <rect width="82" height="90" fill="white" />
                </clipPath>
            </defs>
        </svg>