<svg width="75" height="75" viewBox="0 0 75 75" fill="none" xmlns="http://www.w3.org/2000/svg">
<path d="M37.5 0C16.75 0 0 16.75 0 37.5C0 58.25 16.75 75 37.5 75C58.25 75 75 58.25 75 37.5C75 16.75 58.25 0 37.5 0ZM37.5 4.40625C41.25 4.40625 44.875 5.09375 48.2188 6.25L37.9063 28.5313C37.7813 28.6563 37.7813 28.9375 37.5 28.9375C37.2187 28.9375 37.2187 28.6563 37.0937 28.5313L26.7812 6.25C30.125 5.09375 33.75 4.4375 37.5 4.4375V4.40625ZM21.5625 8.5625L33.5 34.2813C33.75 34.8125 34.0313 34.9687 34.375 34.9687H40.625C41 34.9687 41.25 34.8125 41.5312 34.2813L53.3125 8.5625C58.25 11.375 62.5 15.4062 65.5 20.2187L48.75 52.625C48.625 52.9063 48.4375 53.0312 48.3438 53.0312C48.0938 53.0312 48.0938 52.7813 47.9375 52.625L41.5312 38.4375C41.25 37.9063 41 37.7813 40.625 37.7813H34.375C34.0313 37.7813 33.75 37.9063 33.4688 38.4375L27.0625 52.625C26.9062 52.7813 26.9375 53.0312 26.6562 53.0312C26.375 53.0312 26.375 52.7813 26.25 52.625L9.375 20.2187C12.3125 15.4062 16.625 11.375 21.5625 8.5625V8.5625ZM6.4375 26.6562L25.7187 64.1563C25.9687 64.6875 26.25 65.0937 26.9375 65.0937C27.5937 65.0937 27.8437 64.6875 28.125 64.1563L37.0937 44.1875C37.2187 43.9375 37.375 43.75 37.5 43.75C37.7813 43.75 37.7813 44.0625 37.9063 44.1875L47 64.1563C47.2812 64.6875 47.5313 65.0937 48.2188 65.0937C48.875 65.0937 49.1563 64.6875 49.4063 64.1563L68.75 26.6562C69.9063 30 70.5938 33.625 70.5938 37.5C70.4375 55.5937 55.5937 70.5938 37.5 70.5938C19.4063 70.5938 4.5625 55.5937 4.5625 37.5C4.5625 33.75 5.21875 30.1562 6.4375 26.6562Z" fill="#353531" fill-opacity="0.61"/>
</svg>
