<svg width="32" height="32" viewBox="0 0 32 32" fill="none" xmlns="http://www.w3.org/2000/svg">
<path d="M15.198 0.00514464C12.63 0.0361446 7.109 0.458145 4.021 3.29114C1.724 5.56714 0.922002 8.93215 0.828002 13.0931C0.750002 17.2391 0.656002 25.0251 8.161 27.1451V30.3741C8.161 30.3741 8.114 31.6661 8.968 31.9311C10.02 32.2641 10.619 31.2701 11.619 30.2021L13.484 28.0931C18.619 28.5201 22.552 27.5361 23.005 27.3901C24.047 27.0571 29.916 26.3071 30.875 18.5201C31.859 10.4781 30.396 5.41114 27.755 3.11914H27.739C26.942 2.38514 23.739 0.0511446 16.583 0.0251446C16.583 0.0251446 16.052 -0.0108554 15.198 0.00414464V0.00514464ZM15.286 2.26614C16.015 2.26114 16.458 2.29214 16.458 2.29214C22.515 2.30814 25.406 4.13114 26.088 4.74514C28.312 6.65114 29.458 11.2191 28.619 17.9331C27.822 24.4431 23.062 24.8551 22.181 25.1361C21.806 25.2561 18.342 26.1101 13.978 25.8291C13.978 25.8291 10.728 29.7511 9.712 30.7611C9.551 30.9381 9.363 30.9901 9.243 30.9641C9.071 30.9221 9.019 30.7091 9.029 30.4171L9.06 25.0581C2.695 23.2981 3.07 16.6571 3.138 13.1881C3.216 9.71914 3.867 6.88114 5.805 4.95914C8.414 2.60014 13.102 2.28214 15.284 2.26614H15.286ZM15.766 5.73414C15.7136 5.73362 15.6616 5.74346 15.6131 5.76311C15.5645 5.78277 15.5203 5.81184 15.483 5.84865C15.4458 5.88546 15.4162 5.92928 15.3959 5.9776C15.3756 6.02591 15.3651 6.07776 15.365 6.13014C15.365 6.35414 15.547 6.53114 15.766 6.53114C16.7575 6.51229 17.7429 6.68991 18.6655 7.05377C19.588 7.41763 20.4293 7.96052 21.141 8.65114C22.594 10.0621 23.302 11.9581 23.329 14.4371C23.329 14.6561 23.506 14.8381 23.73 14.8381V14.8221C23.8356 14.8224 23.937 14.7809 24.0121 14.7068C24.0872 14.6326 24.1299 14.5317 24.131 14.4261C24.1796 13.2593 23.9903 12.0948 23.5748 11.0033C23.1593 9.91186 22.5262 8.91631 21.714 8.07714C20.131 6.53014 18.125 5.73314 15.766 5.73314V5.73414ZM10.495 6.65114C10.212 6.60979 9.92327 6.6666 9.677 6.81214H9.656C9.08426 7.14728 8.56922 7.57087 8.13 8.06715C7.765 8.48915 7.567 8.91614 7.515 9.32714C7.484 9.57214 7.505 9.81714 7.578 10.0511L7.604 10.0671C8.015 11.2751 8.552 12.4371 9.208 13.5311C10.053 15.0681 11.093 16.4895 12.302 17.7601L12.338 17.8121L12.395 17.8541L12.431 17.8961L12.473 17.9321C13.7482 19.1447 15.1731 20.1895 16.713 21.0411C18.473 21.9991 19.541 22.4521 20.182 22.6401V22.6501C20.37 22.7071 20.541 22.7331 20.713 22.7331C21.2593 22.6931 21.7765 22.4713 22.182 22.1031C22.676 21.6638 23.0949 21.1467 23.422 20.5721V20.5621C23.729 19.9841 23.625 19.4371 23.182 19.0671C22.2948 18.2916 21.3354 17.6028 20.317 17.0101C19.635 16.6401 18.942 16.8641 18.661 17.2391L18.062 17.9941C17.755 18.3691 17.197 18.3171 17.197 18.3171L17.181 18.3271C13.02 17.2641 11.91 13.0511 11.91 13.0511C11.91 13.0511 11.858 12.4781 12.243 12.1861L12.993 11.5821C13.352 11.2901 13.602 10.5981 13.217 9.91514C12.6284 8.8953 11.9411 7.9357 11.165 7.05014C10.9953 6.84137 10.7573 6.69933 10.493 6.64914L10.495 6.65114ZM16.458 7.83914C15.927 7.83914 15.927 8.64114 16.463 8.64114C17.1233 8.65186 17.775 8.79258 18.3809 9.05528C18.9867 9.31798 19.5349 9.69749 19.994 10.1721C20.4128 10.6342 20.7347 11.1755 20.9404 11.7642C21.1462 12.3528 21.2318 12.9768 21.192 13.5991C21.1938 13.7045 21.2368 13.8049 21.3118 13.8789C21.3867 13.9529 21.4877 13.9946 21.593 13.9951L21.609 14.0161C21.7151 14.0154 21.8167 13.9729 21.8917 13.8978C21.9667 13.8228 22.0092 13.7213 22.01 13.6151C22.046 12.0261 21.552 10.6931 20.583 9.62514C19.609 8.55715 18.25 7.95814 16.515 7.83914H16.458ZM17.115 9.99514C16.568 9.97915 16.547 10.7971 17.089 10.8131C18.407 10.8811 19.047 11.5471 19.131 12.9171C19.1328 13.0211 19.1753 13.1203 19.2493 13.1934C19.3233 13.2664 19.423 13.3076 19.527 13.3081H19.543C19.5965 13.3059 19.649 13.2929 19.6974 13.2701C19.7458 13.2473 19.7892 13.2151 19.825 13.1754C19.8609 13.1356 19.8884 13.0891 19.9061 13.0386C19.9238 12.9881 19.9312 12.9346 19.928 12.8811C19.834 11.0951 18.86 10.0891 17.131 9.99615H17.115V9.99514Z" fill="#F5F3F5"/>
</svg>
